<svg width="32" height="32" viewBox="0 0 32 32" fill="none" xmlns="http://www.w3.org/2000/svg">
<path d="M16.0001 0.520092C7.16461 0.520092 0 7.62601 0 16.3919C0 23.4045 4.5845 29.3539 10.9419 31.4526C11.7415 31.5995 12.0351 31.1083 12.0351 30.6891C12.0351 30.3107 12.0202 29.0603 12.0134 27.7341C7.56202 28.6942 6.62276 25.8614 6.62276 25.8614C5.89494 24.0268 4.84626 23.5391 4.84626 23.5391C3.39464 22.554 4.95568 22.5741 4.95568 22.5741C6.5624 22.6862 7.40843 24.2098 7.40843 24.2098C8.83545 26.6363 11.1514 25.9347 12.0645 25.5293C12.208 24.5033 12.6227 23.8033 13.0803 23.4069C9.5265 23.0055 5.79054 21.6445 5.79054 15.563C5.79054 13.8302 6.41559 12.4142 7.43917 11.3028C7.27303 10.9029 6.72541 9.28868 7.59415 7.10245C7.59415 7.10245 8.93772 6.67586 11.9953 8.7294C13.2715 8.37762 14.6403 8.20135 16.0001 8.19538C17.3598 8.20135 18.7296 8.37762 20.0083 8.7294C23.0623 6.67586 24.404 7.10245 24.404 7.10245C25.2748 9.28868 24.727 10.9029 24.5608 11.3028C25.5867 12.4142 26.2075 13.8301 26.2075 15.563C26.2075 21.659 22.4645 23.0014 18.9017 23.3942C19.4755 23.8868 19.9869 24.8527 19.9869 26.3334C19.9869 28.457 19.9683 30.1663 19.9683 30.6891C19.9683 31.1114 20.2563 31.6064 21.0674 31.4505C27.4213 29.3494 32 23.4022 32 16.3919C32 7.62601 24.8364 0.520092 16.0001 0.520092Z" fill="white"/>
<path d="M5.99257 23.1298C5.95743 23.2086 5.8322 23.2323 5.71838 23.1782C5.60231 23.1265 5.53705 23.0189 5.5747 22.9397C5.60921 22.8586 5.73444 22.8359 5.85027 22.8904C5.96659 22.9421 6.03285 23.0506 5.99257 23.1298ZM6.77961 23.8264C6.70332 23.8966 6.55412 23.864 6.45285 23.7531C6.34819 23.6424 6.32862 23.4945 6.40604 23.4232C6.48472 23.3531 6.62941 23.3859 6.73431 23.4967C6.83897 23.6086 6.8593 23.7556 6.77949 23.8265M7.31958 24.7177C7.22145 24.7853 7.06108 24.7219 6.96207 24.5807C6.86406 24.4397 6.86407 24.2704 6.9642 24.2026C7.06359 24.1347 7.22145 24.1957 7.32184 24.3358C7.41972 24.4793 7.41972 24.6486 7.31945 24.7178M8.23261 25.75C8.1449 25.8458 7.95818 25.8202 7.8214 25.6892C7.6816 25.5613 7.64258 25.3797 7.73054 25.2837C7.81926 25.1876 8.00711 25.2146 8.1449 25.3444C8.28381 25.4721 8.3261 25.6551 8.23261 25.75ZM9.41268 26.0985C9.37416 26.2228 9.19421 26.2793 9.01301 26.2265C8.83206 26.1721 8.7136 26.0265 8.75012 25.9009C8.78776 25.7758 8.96846 25.7169 9.15104 25.7734C9.33174 25.8275 9.45033 25.9721 9.41268 26.0985ZM10.7559 26.2463C10.7604 26.3772 10.6067 26.4858 10.4164 26.4882C10.2251 26.4923 10.0704 26.3863 10.0683 26.2576C10.0683 26.1254 10.2186 26.0179 10.4098 26.0148C10.6 26.011 10.7559 26.1162 10.7559 26.2463ZM12.0752 26.1961C12.0981 26.3238 11.9658 26.455 11.777 26.4899C11.5912 26.5235 11.4193 26.4447 11.3956 26.3181C11.3725 26.1872 11.5073 26.0561 11.6926 26.0221C11.8819 25.9895 12.0511 26.0663 12.0752 26.1961Z" fill="white"/>
</svg>
